<?xml version="1.0" encoding="UTF-8"?>
<svg id="Layer_1" data-name="Layer 1" xmlns="http://www.w3.org/2000/svg" xmlns:xlink="http://www.w3.org/1999/xlink" viewBox="0 0 280 280">
  <defs>
    <style>
      .cls-1 {
        fill: #fff;
      }

      .cls-2 {
        fill: #3d546d;
      }

      .cls-3 {
        fill: url(#linear-gradient);
      }
    </style>
    <linearGradient id="linear-gradient" x1="-154.6" y1="-246.66" x2="100.25" y2="13.23" gradientTransform="translate(166.5 256)" gradientUnits="userSpaceOnUse">
      <stop offset="0" stop-color="#4b9193"/>
      <stop offset="1" stop-color="#3d546d"/>
    </linearGradient>
  </defs>
  <path class="cls-3" d="M254,0c15.29.45,26,12.09,26,27v227c-.27,14.39-11.62,25.72-26,26H26c-14.41-.28-25.75-11.58-26-26V26C.25,11.55,11.55.25,26,0h228Z"/>
  <g>
    <path class="cls-1" d="M200,204.55c-40.63,1.74-81.29,1.59-122-.44-.87-.04-2.12-.57-2.11-2.11l.24-23.77,102.86-.17c.76-16.61,1.08-33.34.96-50.2,7.52-3.44,16.69-.47,25.77-1.44l.08,77.28-5.81.84Z"/>
    <path class="cls-1" d="M204.99,99.93c-34.45-.08-68.79.28-103.03,1.07l-.18,50.74-23.84.17c-.79,0-1.35-.31-1.73-.62-.27-.22-.16-.73-.23-1.13-.88-15.93-.81-32.32-.09-48.16l.2-27.81,129.62.03c-.31,8.97,1.16,17.59-.72,25.71Z"/>
    <rect class="cls-1" x="128.12" y="126.39" width="25.46" height="26.91"/>
    <path class="cls-2" d="M200,204.55c-39.89,5.75-81.59,1.34-122-.44l122,.44Z"/>
  </g>
</svg>